{
  "accessors": [
    {
      "bufferView": 2,
      "componentType": 5126,
      "count": 2145,
      "max": [
        12.402509689331055,
        28.87173843383789,
        12.402509689331055
      ],
      "min": [
        -12.402509689331055,
        2.65847110748291,
        -12.402509689331055
      ],
      "type": "VEC3"
    },
    {
      "bufferView": 2,
      "byteOffset": 25740,
      "componentType": 5126,
      "count": 2145,
      "max": [
        0.9968814253807068,
        0.9999244213104248,
        0.9968814253807068
      ],
      "min": [
        -0.9968814253807068,
        -0.6777440309524536,
        -0.9968814253807068
      ],
      "type": "VEC3"
    },
    {
      "bufferView": 1,
      "componentType": 5126,
      "count": 2145,
      "max": [
        2.0208330154418945,
        1.029646396636963
      ],
      "min": [
        0.0,
        -0.0320819616317749
      ],
      "type": "VEC2"
    },
    {
      "bufferView": 0,
      "componentType": 5125,
      "count": 10368,
      "type": "SCALAR"
    },
    {
      "bufferView": 2,
      "byteOffset": 51480,
      "componentType": 5126,
      "count": 3218,
      "max": [
        0.6000002026557922,
        -0.7384774088859558,
        0.9600003957748413
      ],
      "min": [
        -0.6000003218650818,
        -1.7000000476837158,
        -0.9600003361701965
      ],
      "type": "VEC3"
    },
    {
      "bufferView": 2,
      "byteOffset": 90096,
      "componentType": 5126,
      "count": 3218,
      "max": [
        1.0,
        3.369757905602455e-06,
        1.0
      ],
      "min": [
        -1.0,
        -1.0,
        -1.0
      ],
      "type": "VEC3"
    },
    {
      "bufferView": 1,
      "byteOffset": 17160,
      "componentType": 5126,
      "count": 3218,
      "max": [
        3.259212017059326,
        0.5848867893218994
      ],
      "min": [
        0.41511270403862,
        -2.3048861026763916
      ],
      "type": "VEC2"
    },
    {
      "bufferView": 0,
      "byteOffset": 41472,
      "componentType": 5125,
      "count": 13038,
      "type": "SCALAR"
    },
    {
      "bufferView": 2,
      "byteOffset": 128712,
      "componentType": 5126,
      "count": 2022,
      "max": [
        0.8951036930084229,
        0.6591187119483948,
        1.0199960470199585
      ],
      "min": [
        0.6784793138504028,
        -0.6591334939002991,
        -1.0199979543685913
      ],
      "type": "VEC3"
    },
    {
      "bufferView": 2,
      "byteOffset": 152976,
      "componentType": 5126,
      "count": 2022,
      "max": [
        0.9999709129333496,
        0.9860495924949646,
        0.9999711513519287
      ],
      "min": [
        -0.9999748468399048,
        -0.9858080148696899,
        -0.9999711513519287
      ],
      "type": "VEC3"
    },
    {
      "bufferView": 0,
      "byteOffset": 93624,
      "componentType": 5125,
      "count": 12132,
      "type": "SCALAR"
    },
    {
      "bufferView": 2,
      "byteOffset": 177240,
      "componentType": 5126,
      "count": 600,
      "max": [
        0.6223739981651306,
        0.42929860949516296,
        0.8950566053390503
      ],
      "min": [
        -0.6223739981651306,
        -0.7549619078636169,
        -0.8950566053390503
      ],
      "type": "VEC3"
    },
    {
      "bufferView": 2,
      "byteOffset": 184440,
      "componentType": 5126,
      "count": 600,
      "max": [
        0.9771517515182495,
        0.9764754772186279,
        0.9364532232284546
      ],
      "min": [
        -0.9771517515182495,
        -0.976384162902832,
        -0.9364532232284546
      ],
      "type": "VEC3"
    },
    {
      "bufferView": 0,
      "byteOffset": 142152,
      "componentType": 5125,
      "count": 3456,
      "type": "SCALAR"
    },
    {
      "bufferView": 2,
      "byteOffset": 191640,
      "componentType": 5126,
      "count": 262,
      "max": [
        0.22999998927116394,
        0.4912322163581848,
        0.22999998927116394
      ],
      "min": [
        -0.22999998927116394,
        0.3999999165534973,
        -0.22999998927116394
      ],
      "type": "VEC3"
    },
    {
      "bufferView": 2,
      "byteOffset": 194784,
      "componentType": 5126,
      "count": 262,
      "max": [
        1.0,
        1.0,
        1.0
      ],
      "min": [
        -1.0,
        0.0,
        -1.0
      ],
      "type": "VEC3"
    },
    {
      "bufferView": 1,
      "byteOffset": 42904,
      "componentType": 5126,
      "count": 262,
      "max": [
        1.565392017364502,
        2.0576159954071045
      ],
      "min": [
        -0.5488278865814209,
        -1.75
      ],
      "type": "VEC2"
    },
    {
      "bufferView": 0,
      "byteOffset": 155976,
      "componentType": 5125,
      "count": 390,
      "type": "SCALAR"
    },
    {
      "bufferView": 2,
      "byteOffset": 197928,
      "componentType": 5126,
      "count": 288,
      "max": [
        0.005840419791638851,
        0.005231260787695646,
        1.2787280082702637
      ],
      "min": [
        -2.5516159534454346,
        -1.1574020385742188,
        -1.2787280082702637
      ],
      "type": "VEC3"
    },
    {
      "bufferView": 2,
      "byteOffset": 201384,
      "componentType": 5126,
      "count": 288,
      "max": [
        0.9408402442932129,
        0.5831550359725952,
        1.0
      ],
      "min": [
        -1.0,
        -0.5813743472099304,
        -0.9229351282119751
      ],
      "type": "VEC3"
    },
    {
      "bufferView": 0,
      "byteOffset": 157536,
      "componentType": 5125,
      "count": 288,
      "type": "SCALAR"
    }
  ],
  "asset": {
    "extras": {
      "author": "haberlerm (https://sketchfab.com/haberlerm)",
      "license": "CC-BY-4.0 (http://creativecommons.org/licenses/by/4.0/)",
      "source": "https://sketchfab.com/3d-models/hot-air-balloon-stainzer-molkerei-afc93c1289d74c80bef1b7d78ef1d412",
      "title": "hot air balloon „Stainzer Molkerei\""
    },
    "generator": "Sketchfab-12.68.0",
    "version": "2.0"
  },
  "bufferViews": [
    {
      "buffer": 0,
      "byteLength": 158688,
      "name": "floatBufferViews",
      "target": 34963
    },
    {
      "buffer": 0,
      "byteLength": 45000,
      "byteOffset": 158688,
      "byteStride": 8,
      "name": "floatBufferViews",
      "target": 34962
    },
    {
      "buffer": 0,
      "byteLength": 204840,
      "byteOffset": 203688,
      "byteStride": 12,
      "name": "floatBufferViews",
      "target": 34962
    }
  ],
  "buffers": [
    {
      "byteLength": 408528,
      "uri": "scene.bin"
    }
  ],
  "images": [
    {
      "uri": "textures/Material_baseColor.png"
    },
    {
      "uri": "textures/Basket_Material_baseColor.jpeg"
    },
    {
      "uri": "textures/FlameGrate_baseColor.png"
    }
  ],
  "materials": [
    {
      "doubleSided": true,
      "name": "Material",
      "pbrMetallicRoughness": {
        "baseColorTexture": {
          "index": 0
        },
        "metallicFactor": 0.0,
        "roughnessFactor": 0.4
      }
    },
    {
      "doubleSided": true,
      "name": "Basket_Material",
      "pbrMetallicRoughness": {
        "baseColorTexture": {
          "index": 1
        },
        "metallicFactor": 0.0,
        "roughnessFactor": 0.5
      }
    },
    {
      "doubleSided": true,
      "name": "Pipes",
      "pbrMetallicRoughness": {
        "baseColorFactor": [
          0.267458,
          0.0638306,
          0.00956395,
          1.0
        ],
        "metallicFactor": 0.0,
        "roughnessFactor": 0.5
      }
    },
    {
      "doubleSided": true,
      "name": "FlameGrate",
      "pbrMetallicRoughness": {
        "baseColorTexture": {
          "index": 2
        },
        "metallicFactor": 0.0,
        "roughnessFactor": 0.5
      }
    },
    {
      "doubleSided": true,
      "name": "Black",
      "pbrMetallicRoughness": {
        "baseColorFactor": [
          0.0,
          0.0,
          0.0,
          1.0
        ],
        "metallicFactor": 0.0,
        "roughnessFactor": 0.5
      }
    }
  ],
  "meshes": [
    {
      "name": "Object_0",
      "primitives": [
        {
          "attributes": {
            "NORMAL": 1,
            "POSITION": 0,
            "TEXCOORD_0": 2
          },
          "indices": 3,
          "material": 0,
          "mode": 4
        }
      ]
    },
    {
      "name": "Object_1",
      "primitives": [
        {
          "attributes": {
            "NORMAL": 5,
            "POSITION": 4,
            "TEXCOORD_0": 6
          },
          "indices": 7,
          "material": 1,
          "mode": 4
        }
      ]
    },
    {
      "name": "Object_2",
      "primitives": [
        {
          "attributes": {
            "NORMAL": 9,
            "POSITION": 8
          },
          "indices": 10,
          "material": 2,
          "mode": 4
        }
      ]
    },
    {
      "name": "Object_3",
      "primitives": [
        {
          "attributes": {
            "NORMAL": 12,
            "POSITION": 11
          },
          "indices": 13,
          "material": 2,
          "mode": 4
        }
      ]
    },
    {
      "name": "Object_4",
      "primitives": [
        {
          "attributes": {
            "NORMAL": 15,
            "POSITION": 14,
            "TEXCOORD_0": 16
          },
          "indices": 17,
          "material": 3,
          "mode": 4
        }
      ]
    },
    {
      "name": "Object_5",
      "primitives": [
        {
          "attributes": {
            "NORMAL": 19,
            "POSITION": 18
          },
          "indices": 20,
          "material": 4,
          "mode": 4
        }
      ]
    }
  ],
  "nodes": [
    {
      "children": [
        1
      ],
      "matrix": [
        1.0,
        0.0,
        0.0,
        0.0,
        0.0,
        0.0011741016060116127,
        -0.9999992847442627,
        0.0,
        0.0,
        0.9999992847442627,
        0.0011741016060116127,
        0.0,
        0.0,
        5.194799086895882e-06,
        -0.008889027871191502,
        1.0
      ],
      "name": "Sketchfab_model"
    },
    {
      "children": [
        2
      ],
      "name": "root"
    },
    {
      "children": [
        3,
        5,
        7,
        9,
        11,
        13
      ],
      "matrix": [
        1.0,
        0.0,
        0.0,
        0.0,
        0.0,
        2.220446049250313e-16,
        1.0,
        0.0,
        0.0,
        -1.0,
        2.220446049250313e-16,
        0.0,
        0.0,
        0.0,
        0.0,
        1.0
      ],
      "name": "GLTF_SceneRootNode"
    },
    {
      "children": [
        4
      ],
      "matrix": [
        0.5833333134651184,
        0.0,
        0.0,
        0.0,
        0.0,
        0.5833333134651184,
        0.0,
        0.0,
        0.0,
        0.0,
        0.5833333134651184,
        0.0,
        0.0,
        0.0,
        0.0,
        1.0
      ],
      "name": "Balloon_2"
    },
    {
      "mesh": 0,
      "name": "Object_4"
    },
    {
      "children": [
        6
      ],
      "name": "Basket_3"
    },
    {
      "mesh": 1,
      "name": "Object_6"
    },
    {
      "children": [
        8
      ],
      "matrix": [
        8.429369480200677e-08,
        -0.9999999999999966,
        -0.0,
        0.0,
        0.9999999999999966,
        8.429369480200677e-08,
        0.0,
        0.0,
        0.0,
        -0.0,
        1.0,
        0.0,
        0.0,
        0.0,
        0.0,
        1.0
      ],
      "name": "Basket_top_edge_4"
    },
    {
      "mesh": 2,
      "name": "Object_8"
    },
    {
      "children": [
        10
      ],
      "name": "FlameSupports_5"
    },
    {
      "mesh": 3,
      "name": "Object_10"
    },
    {
      "children": [
        12
      ],
      "name": "Plane_6"
    },
    {
      "mesh": 4,
      "name": "Object_12"
    },
    {
      "children": [
        14
      ],
      "matrix": [
        1.0,
        0.0,
        0.0,
        0.0,
        0.0,
        1.0,
        0.0,
        0.0,
        0.0,
        0.0,
        1.0,
        0.0,
        1.272887945175171,
        1.5507559776306152,
        0.0,
        1.0
      ],
      "name": "Black_ropes_7"
    },
    {
      "mesh": 5,
      "name": "Object_14"
    }
  ],
  "samplers": [
    {
      "magFilter": 9729,
      "minFilter": 9987,
      "wrapS": 33071,
      "wrapT": 33071
    },
    {
      "magFilter": 9729,
      "minFilter": 9987,
      "wrapS": 10497,
      "wrapT": 10497
    }
  ],
  "scene": 0,
  "scenes": [
    {
      "name": "Sketchfab_Scene",
      "nodes": [
        0
      ]
    }
  ],
  "textures": [
    {
      "sampler": 0,
      "source": 0
    },
    {
      "sampler": 1,
      "source": 1
    },
    {
      "sampler": 1,
      "source": 2
    }
  ]
}
